<svg width="138" height="32" viewBox="0 0 138 32" fill="none" xmlns="http://www.w3.org/2000/svg">
<rect width="32" height="32" rx="6" fill="url(#paint0_linear_1_38)"/>
<g style="mix-blend-mode:overlay">
<path d="M10 20C15 20 17 12 22 12C23.0609 12 24.0783 12.4214 24.8284 13.1716C25.5786 13.9217 26 14.9391 26 16C26 17.0609 25.5786 18.0783 24.8284 18.8284C24.0783 19.5786 23.0609 20 22 20C17 20 15 12 10 12C8.93913 12 7.92172 12.4214 7.17157 13.1716C6.42143 13.9217 6 14.9391 6 16C6 17.0609 6.42143 18.0783 7.17157 18.8284C7.92172 19.5786 8.93913 20 10 20Z" stroke="white" stroke-width="2" stroke-linecap="round" stroke-linejoin="round"/>
</g>
<path d="M49.832 25H48V7H49.832V25Z" fill="white"/>
<path d="M53.409 25V7H55.4871L66.9438 22.2695V7H68.5844V25H66.8891L55.1043 9.14727V25H53.409Z" fill="white"/>
<path d="M84.3718 8.3785H73.9541V14.7938H83.0046V16.1988H73.9541V25H72.0674V7H84.3718V8.3785Z" fill="white"/>
<path d="M87.7031 25H85.8712V7H87.7031V25Z" fill="white"/>
<path d="M91.2802 25V7H93.3582L104.815 22.2695V7H106.456V25H104.76L92.9754 9.14727V25H91.2802Z" fill="white"/>
<path d="M122.38 25H109.939V7H122.243V8.3785H111.825V14.6878H120.876V16.1193H111.825V23.6215H122.38V25Z" fill="white"/>
<path d="M126.024 8.32548V15.324H130.453C131.711 15.324 132.732 15.2091 133.516 14.9794C134.482 14.6966 135.147 14.1576 135.512 13.3623C135.712 12.8851 135.813 12.3638 135.813 11.7982C135.813 10.6495 135.475 9.7835 134.801 9.20029C134.309 8.75847 133.479 8.48454 132.313 8.3785C131.766 8.34315 131.255 8.32548 130.781 8.32548H126.024ZM133.68 16.4639L138 25H136.031L131.82 16.7025H126.024V25H124.164V7H130.891C133.297 7 135.029 7.37997 136.086 8.13991C137.161 8.89985 137.699 10.1105 137.699 11.7717C137.699 14.1929 136.359 15.757 133.68 16.4639Z" fill="white"/>
<defs>
<linearGradient id="paint0_linear_1_38" x1="-6.71649" y1="-6.50557" x2="40.2469" y2="48.5087" gradientUnits="userSpaceOnUse">
<stop stop-color="#225EDF"/>
<stop offset="1" stop-color="#133379"/>
</linearGradient>
</defs>
</svg>
